<svg width="33" height="33" viewBox="0 0 33 33" fill="none" xmlns="http://www.w3.org/2000/svg">
<path d="M17.3379 1.59633C17.3379 1.2427 17.4783 0.903566 17.7284 0.653518C17.9784 0.403469 18.3176 0.262994 18.6712 0.262994C22.2062 0.266876 25.5953 1.67288 28.095 4.17252C30.5946 6.67217 32.0006 10.0613 32.0045 13.5963C32.0045 13.95 31.864 14.2891 31.614 14.5391C31.3639 14.7892 31.0248 14.9297 30.6712 14.9297C30.3175 14.9297 29.9784 14.7892 29.7284 14.5391C29.4783 14.2891 29.3378 13.95 29.3378 13.5963C29.3347 10.7683 28.2098 8.05706 26.2101 6.05736C24.2104 4.05766 21.4992 2.93284 18.6712 2.92966C18.3176 2.92966 17.9784 2.78918 17.7284 2.53914C17.4783 2.28909 17.3379 1.94995 17.3379 1.59633ZM18.6712 8.26299C20.0857 8.26299 21.4422 8.8249 22.4424 9.82509C23.4426 10.8253 24.0045 12.1818 24.0045 13.5963C24.0045 13.95 24.145 14.2891 24.395 14.5391C24.6451 14.7892 24.9842 14.9297 25.3378 14.9297C25.6915 14.9297 26.0306 14.7892 26.2807 14.5391C26.5307 14.2891 26.6712 13.95 26.6712 13.5963C26.6691 11.4752 25.8255 9.44164 24.3257 7.94181C22.8259 6.44198 20.7923 5.59845 18.6712 5.59633C18.3176 5.59633 17.9784 5.7368 17.7284 5.98685C17.4783 6.2369 17.3379 6.57604 17.3379 6.92966C17.3379 7.28328 17.4783 7.62242 17.7284 7.87247C17.9784 8.12252 18.3176 8.26299 18.6712 8.26299ZM30.7952 22.5817C31.5679 23.3565 32.0018 24.4061 32.0018 25.5003C32.0018 26.5946 31.5679 27.6442 30.7952 28.419L29.5818 29.8177C18.6618 40.2723 -7.91145 13.7057 2.38187 2.75099L3.9152 1.41766C4.69089 0.666563 5.73111 0.251059 6.8108 0.26104C7.8905 0.271021 8.92286 0.705685 9.68453 1.47099C9.72586 1.51233 12.1965 4.72166 12.1965 4.72166C12.9296 5.49183 13.3377 6.5149 13.336 7.5782C13.3343 8.6415 12.9228 9.66323 12.1872 10.431L10.6432 12.3723C11.4977 14.4485 12.7539 16.3353 14.3399 17.9245C15.9258 19.5136 17.8101 20.7737 19.8845 21.6323L21.8378 20.079C22.6057 19.3439 23.6273 18.933 24.6902 18.9315C25.7532 18.93 26.7759 19.3381 27.5458 20.071C27.5458 20.071 30.7538 22.5403 30.7952 22.5817ZM28.9605 24.5203C28.9605 24.5203 25.7698 22.0657 25.7285 22.0243C25.4538 21.752 25.0827 21.5992 24.6958 21.5992C24.309 21.5992 23.9379 21.752 23.6632 22.0243C23.6272 22.0617 20.9378 24.2043 20.9378 24.2043C20.7566 24.3486 20.5409 24.4431 20.312 24.4787C20.0832 24.5142 19.849 24.4895 19.6325 24.407C16.9451 23.4064 14.5042 21.84 12.475 19.8138C10.4458 17.7876 8.87573 15.3489 7.8712 12.663C7.78213 12.4436 7.75309 12.2044 7.78707 11.9701C7.82105 11.7358 7.91681 11.5147 8.06453 11.3297C8.06453 11.3297 10.2072 8.63899 10.2432 8.60433C10.5156 8.32964 10.6684 7.95848 10.6684 7.57166C10.6684 7.18484 10.5156 6.81368 10.2432 6.53899C10.2019 6.49899 7.7472 3.30566 7.7472 3.30566C7.4684 3.05567 7.10453 2.92179 6.73019 2.93146C6.35585 2.94112 5.99939 3.09361 5.73387 3.35766L4.20053 4.69099C-3.32212 13.7363 19.7058 35.487 27.6325 27.9963L28.8472 26.5963C29.1318 26.3327 29.3028 25.9687 29.3239 25.5813C29.3451 25.1939 29.2148 24.8134 28.9605 24.5203Z" fill="#00ADC4"/>
</svg>
