<svg width="21" height="21" viewBox="0 0 21 21" fill="none" xmlns="http://www.w3.org/2000/svg">
<g clip-path="url(#clip0_802_1683)">
<path d="M15.8988 2.16224H15.0654V1.32891C15.0654 1.10789 14.9776 0.895933 14.8214 0.739653C14.6651 0.583372 14.4531 0.495575 14.2321 0.495575C14.0111 0.495575 13.7991 0.583372 13.6428 0.739653C13.4866 0.895933 13.3988 1.10789 13.3988 1.32891V2.16224H6.7321V1.32891C6.7321 1.10789 6.6443 0.895933 6.48802 0.739653C6.33174 0.583372 6.11978 0.495575 5.89876 0.495575C5.67775 0.495575 5.46579 0.583372 5.30951 0.739653C5.15323 0.895933 5.06543 1.10789 5.06543 1.32891V2.16224H4.2321C3.12743 2.16356 2.06839 2.60298 1.28728 3.38409C0.506165 4.16521 0.0667529 5.22425 0.0654297 6.32891L0.0654297 16.3289C0.0667529 17.4336 0.506165 18.4926 1.28728 19.2737C2.06839 20.0548 3.12743 20.4943 4.2321 20.4956H15.8988C17.0034 20.4943 18.0625 20.0548 18.8436 19.2737C19.6247 18.4926 20.0641 17.4336 20.0654 16.3289V6.32891C20.0641 5.22425 19.6247 4.16521 18.8436 3.38409C18.0625 2.60298 17.0034 2.16356 15.8988 2.16224ZM1.7321 6.32891C1.7321 5.66587 1.99549 5.02998 2.46433 4.56114C2.93317 4.0923 3.56906 3.82891 4.2321 3.82891H15.8988C16.5618 3.82891 17.1977 4.0923 17.6665 4.56114C18.1354 5.02998 18.3988 5.66587 18.3988 6.32891V7.16224H1.7321V6.32891ZM15.8988 18.8289H4.2321C3.56906 18.8289 2.93317 18.5655 2.46433 18.0967C1.99549 17.6278 1.7321 16.9919 1.7321 16.3289V8.82891H18.3988V16.3289C18.3988 16.9919 18.1354 17.6278 17.6665 18.0967C17.1977 18.5655 16.5618 18.8289 15.8988 18.8289Z" fill="#00ADC4"/>
<path d="M10.0654 14.2456C10.7558 14.2456 11.3154 13.6859 11.3154 12.9956C11.3154 12.3052 10.7558 11.7456 10.0654 11.7456C9.37507 11.7456 8.81543 12.3052 8.81543 12.9956C8.81543 13.6859 9.37507 14.2456 10.0654 14.2456Z" fill="#00ADC4"/>
<path d="M5.89844 14.2456C6.58879 14.2456 7.14844 13.6859 7.14844 12.9956C7.14844 12.3052 6.58879 11.7456 5.89844 11.7456C5.20808 11.7456 4.64844 12.3052 4.64844 12.9956C4.64844 13.6859 5.20808 14.2456 5.89844 14.2456Z" fill="#00ADC4"/>
<path d="M14.2324 14.2456C14.9228 14.2456 15.4824 13.6859 15.4824 12.9956C15.4824 12.3052 14.9228 11.7456 14.2324 11.7456C13.5421 11.7456 12.9824 12.3052 12.9824 12.9956C12.9824 13.6859 13.5421 14.2456 14.2324 14.2456Z" fill="#00ADC4"/>
</g>
<defs>
<clipPath id="clip0_802_1683">
<rect width="20" height="20" fill="white" transform="translate(0.0654297 0.495575)"/>
</clipPath>
</defs>
</svg>
