<svg width="33" height="33" viewBox="0 0 33 33" fill="none" xmlns="http://www.w3.org/2000/svg">
<g clip-path="url(#clip0_124_1509)">
<path d="M32.0293 13.7012V26.0692C32.0272 27.8367 31.3241 29.5311 30.0743 30.7809C28.8246 32.0307 27.1301 32.7338 25.3626 32.7359H24.0293C23.6757 32.7359 23.3365 32.5954 23.0865 32.3453C22.8364 32.0953 22.696 31.7562 22.696 31.4025C22.696 31.0489 22.8364 30.7098 23.0865 30.4597C23.3365 30.2097 23.6757 30.0692 24.0293 30.0692H25.3626C26.4235 30.0692 27.4409 29.6478 28.1911 28.8976C28.9412 28.1475 29.3626 27.1301 29.3626 26.0692V13.7012C29.3627 13.0464 29.202 12.4017 28.8946 11.8235C28.5873 11.2453 28.1427 10.7514 27.6 10.3852L18.2666 4.08787C17.6071 3.63828 16.8275 3.39781 16.0293 3.39781C15.2311 3.39781 14.4515 3.63828 13.792 4.08787L4.45864 10.3852C3.91586 10.7514 3.4713 11.2453 3.16397 11.8235C2.85663 12.4017 2.69593 13.0464 2.69597 13.7012V26.0692C2.69597 27.1301 3.1174 28.1475 3.86754 28.8976C4.61769 29.6478 5.6351 30.0692 6.69597 30.0692H8.0293C8.38293 30.0692 8.72206 30.2097 8.97211 30.4597C9.22216 30.7098 9.36264 31.0489 9.36264 31.4025C9.36264 31.7562 9.22216 32.0953 8.97211 32.3453C8.72206 32.5954 8.38293 32.7359 8.0293 32.7359H6.69597C4.92851 32.7338 3.23405 32.0307 1.98426 30.7809C0.734478 29.5311 0.0314192 27.8367 0.0293021 26.0692V13.7012C0.0279356 12.6102 0.294741 11.5355 0.806241 10.5718C1.31774 9.60808 2.05826 8.78485 2.96264 8.17454L12.296 1.87587C13.3963 1.12914 14.6955 0.729935 16.0253 0.729935C17.3551 0.729935 18.6543 1.12914 19.7546 1.87587L29.088 8.17454C29.9932 8.78453 30.7349 9.60749 31.2477 10.5711C31.7606 11.5348 32.029 12.6096 32.0293 13.7012ZM25.3626 20.7452C25.3661 21.9712 25.1262 23.1857 24.6571 24.3184C24.1879 25.451 23.4987 26.4794 22.6293 27.3439L17.9426 31.9279C17.4296 32.4246 16.7434 32.7024 16.0293 32.7024C15.3152 32.7024 14.629 32.4246 14.116 31.9279L9.43997 27.3545C8.3525 26.2705 7.54929 24.9348 7.10155 23.466C6.65382 21.9972 6.57538 20.4407 6.87321 18.9343C7.17103 17.4279 7.83591 16.0183 8.80891 14.8304C9.7819 13.6425 11.033 12.713 12.4511 12.1244C13.8693 11.5357 15.4109 11.306 16.9391 11.4557C18.4673 11.6054 19.935 12.1298 21.212 12.9824C22.489 13.8351 23.536 14.9896 24.26 16.3437C24.984 17.6979 25.3627 19.2097 25.3626 20.7452ZM22.696 20.7452C22.696 19.6489 22.4256 18.5695 21.9089 17.6026C21.3921 16.6358 20.6449 15.8113 19.7333 15.2021C18.8218 14.593 17.7742 14.2181 16.6831 14.1106C15.5921 14.0031 14.4914 14.1663 13.4785 14.5857C12.4656 15.0052 11.5718 15.668 10.8763 16.5154C10.1807 17.3628 9.70486 18.3686 9.49087 19.4438C9.27688 20.5191 9.33136 21.6305 9.64947 22.6796C9.96759 23.7287 10.5395 24.6832 11.3146 25.4585L15.9813 30.0212L20.7546 25.4479C21.3728 24.8311 21.8626 24.0979 22.1958 23.2908C22.529 22.4836 22.699 21.6184 22.696 20.7452ZM20.0293 20.7359C20.0293 21.527 19.7947 22.3004 19.3552 22.9582C18.9157 23.6159 18.2909 24.1286 17.56 24.4314C16.8291 24.7341 16.0249 24.8134 15.2489 24.659C14.473 24.5047 13.7603 24.1237 13.2009 23.5643C12.6415 23.0049 12.2605 22.2922 12.1062 21.5162C11.9518 20.7403 12.031 19.936 12.3338 19.2051C12.6365 18.4742 13.1492 17.8495 13.807 17.41C14.4648 16.9705 15.2382 16.7359 16.0293 16.7359C17.0902 16.7359 18.1076 17.1573 18.8577 17.9074C19.6079 18.6576 20.0293 19.675 20.0293 20.7359Z" fill="#00ADC4"/>
</g>
<defs>
<clipPath id="clip0_124_1509">
<rect width="32" height="32" fill="white" transform="translate(0.0292969 0.73465)"/>
</clipPath>
</defs>
</svg>
