<svg width="33" height="33" viewBox="0 0 33 33" fill="none" xmlns="http://www.w3.org/2000/svg">
<g clip-path="url(#clip0_124_1516)">
<path d="M25.3626 2.06777H6.69596C4.9285 2.06989 3.23404 2.77295 1.98426 4.02273C0.734473 5.27251 0.031414 6.96698 0.0292969 8.73444L0.0292969 24.7344C0.031414 26.5019 0.734473 28.1964 1.98426 29.4461C3.23404 30.6959 4.9285 31.399 6.69596 31.4011H25.3626C27.1301 31.399 28.8246 30.6959 30.0743 29.4461C31.3241 28.1964 32.0272 26.5019 32.0293 24.7344V8.73444C32.0272 6.96698 31.3241 5.27251 30.0743 4.02273C28.8246 2.77295 27.1301 2.06989 25.3626 2.06777ZM6.69596 4.73444H25.3626C26.161 4.73601 26.9407 4.97646 27.6012 5.42484C28.2618 5.87323 28.7731 6.50903 29.0693 7.25044L18.8586 17.4624C18.1072 18.2109 17.0899 18.6311 16.0293 18.6311C14.9687 18.6311 13.9514 18.2109 13.2 17.4624L2.9893 7.25044C3.2855 6.50903 3.79678 5.87323 4.45736 5.42484C5.11794 4.97646 5.89758 4.73601 6.69596 4.73444ZM25.3626 28.7344H6.69596C5.6351 28.7344 4.61768 28.313 3.86754 27.5629C3.11739 26.8127 2.69596 25.7953 2.69596 24.7344V10.7344L11.3146 19.3478C12.5661 20.5961 14.2616 21.2972 16.0293 21.2972C17.797 21.2972 19.4925 20.5961 20.744 19.3478L29.3626 10.7344V24.7344C29.3626 25.7953 28.9412 26.8127 28.1911 27.5629C27.4409 28.313 26.4235 28.7344 25.3626 28.7344Z" fill="#00ADC4"/>
</g>
<defs>
<clipPath id="clip0_124_1516">
<rect width="32" height="32" fill="white" transform="translate(0.0292969 0.734653)"/>
</clipPath>
</defs>
</svg>
