<svg width="25" height="24" viewBox="0 0 25 24" fill="none" xmlns="http://www.w3.org/2000/svg">
<g clip-path="url(#clip0_103_1450)">
<path d="M12.043 0C5.41555 0 0.0429688 5.37258 0.0429688 12C0.0429688 18.6274 5.41555 24 12.043 24C18.6704 24 24.043 18.6274 24.043 12C24.0358 5.37553 18.6674 0.00717187 12.043 0ZM16.043 14.587C16.4493 14.961 16.4756 15.5936 16.1015 16C15.7275 16.4063 15.0949 16.4326 14.6885 16.0586C14.6682 16.0399 14.6487 16.0203 14.63 16L12.043 13.414L9.45697 16C9.0597 16.3837 8.42666 16.3726 8.04298 15.9754C7.66873 15.5879 7.66873 14.9735 8.04298 14.586L10.629 12L8.04298 9.414C7.65931 9.01673 7.67033 8.38369 8.06759 8.00002C8.45511 7.62577 9.06945 7.62577 9.45697 8.00002L12.043 10.586L14.63 8.00002C15.004 7.59366 15.6366 7.56741 16.043 7.94142C16.4493 8.31544 16.4756 8.94806 16.1015 9.35442C16.0828 9.37477 16.0633 9.39427 16.043 9.41302L13.457 12L16.043 14.587Z" fill="#EC4561"/>
</g>
<defs>
<clipPath id="clip0_103_1450">
<rect width="24" height="24" fill="white" transform="translate(0.0429688)"/>
</clipPath>
</defs>
</svg>
