<svg width="42" height="43" viewBox="0 0 42 43" fill="none" xmlns="http://www.w3.org/2000/svg">
<g clip-path="url(#clip0_73_16)">
<path d="M28 35.6564L35 35.6564C36.8565 35.6564 38.637 34.919 39.9498 33.6062C41.2625 32.2934 42 30.513 42 28.6564L42 21.6564C42 20.7282 41.6313 19.8379 40.9749 19.1816C40.3185 18.5252 39.4283 18.1564 38.5 18.1564L28.1575 18.1564C28.5727 15.7125 29.8384 13.494 31.731 11.8928C33.6235 10.2917 36.0211 9.41104 38.5 9.40644C38.9641 9.40644 39.4093 9.22206 39.7375 8.89387C40.0656 8.56569 40.25 8.12057 40.25 7.65644C40.25 7.19231 40.0656 6.74719 39.7375 6.419C39.4093 6.09081 38.9641 5.90644 38.5 5.90644C34.7883 5.9106 31.2297 7.38694 28.6051 10.0115C25.9805 12.6362 24.5042 16.1947 24.5 19.9064L24.5 32.1564C24.5 33.0847 24.8688 33.9749 25.5251 34.6313C26.1815 35.2877 27.0718 35.6564 28 35.6564Z" fill="#00ADC4"/>
<path d="M3.5002 35.6564L10.5002 35.6564C12.3567 35.6564 14.1372 34.919 15.4499 33.6062C16.7627 32.2934 17.5002 30.513 17.5002 28.6564L17.5002 21.6564C17.5002 20.7282 17.1314 19.8379 16.475 19.1816C15.8187 18.5252 14.9284 18.1564 14.0002 18.1564L3.6577 18.1564C4.07292 15.7125 5.33861 13.494 7.23113 11.8928C9.12366 10.2917 11.5212 9.41104 14.0002 9.40644C14.4643 9.40644 14.9094 9.22206 15.2376 8.89387C15.5658 8.56569 15.7502 8.12057 15.7502 7.65644C15.7502 7.19231 15.5658 6.74719 15.2376 6.419C14.9094 6.09081 14.4643 5.90644 14.0002 5.90644C10.2884 5.9106 6.7299 7.38694 4.10531 10.0115C1.48071 12.6362 0.00437716 16.1947 0.000207371 19.9064L0.0002063 32.1564C0.000206218 33.0847 0.368956 33.9749 1.02533 34.6313C1.68171 35.2877 2.57194 35.6564 3.5002 35.6564Z" fill="#00ADC4"/>
</g>
<defs>
<clipPath id="clip0_73_16">
<rect width="42" height="42" fill="white" transform="translate(42 42.657) rotate(-180)"/>
</clipPath>
</defs>
</svg>
